<svg xmlns="http://www.w3.org/2000/svg" viewBox="0 0 256 256" enable-background="new 0 0 256 256"><path d="M255 234.3c0 11.5-9.3 20.7-20.7 20.7H21.7C10.3 255 1 245.7 1 234.3V21.7C1 10.3 10.3 1 21.7 1h212.5c11.5 0 20.7 9.3 20.7 20.7v212.6z" fill="#666"/><path d="M128 29.9c-55.5 0-100.5 45-100.5 100.5 0 44.4 28.8 82.1 68.8 95.4 5 .9 6.9-2.2 6.9-4.8 0-2.4-.1-8.7-.1-17.1-28 6.1-33.9-13.5-33.9-13.5-4.6-11.6-11.2-14.7-11.2-14.7-9.1-6.2.7-6.1.7-6.1C68.7 170.4 74 180 74 180c9 15.4 23.5 10.9 29.3 8.4.9-6.5 3.5-10.9 6.4-13.4-22.3-2.5-45.8-11.2-45.8-49.7 0-11 3.9-19.9 10.3-27-1-2.5-4.5-12.8 1-26.6 0 0 8.4-2.7 27.6 10.3 8-2.2 16.6-3.3 25.2-3.4 8.5 0 17.1 1.2 25.2 3.4 19.2-13 27.6-10.3 27.6-10.3 5.5 13.8 2 24.1 1 26.6 6.4 7 10.3 16 10.3 27 0 38.6-23.5 47.1-45.9 49.6 3.6 3.1 6.8 9.2 6.8 18.6 0 13.4-.1 24.3-.1 27.6 0 2.7 1.8 5.8 6.9 4.8 39.9-13.3 68.7-51 68.7-95.4 0-55.5-45-100.6-100.5-100.6z" fill-rule="evenodd" clip-rule="evenodd" fill="#fff"/></svg>