<svg xmlns="http://www.w3.org/2000/svg" viewBox="0 0 256 256" enable-background="new 0 0 256 256"><path d="M255 234.3c0 11.5-9.3 20.7-20.7 20.7H21.7C10.3 255 1 245.7 1 234.3V21.7C1 10.3 10.3 1 21.7 1h212.5c11.5 0 20.7 9.3 20.7 20.7v212.6z" fill="#176696"/><g fill="#fff"><path d="M103 209H40.3c-6.6 0-12-5.4-12-12V40.3c0-6.6 5.4-12 12-12H103c6.6 0 12 5.4 12 12V197c0 6.6-5.4 12-12 12zM215.7 138.4H153c-6.6 0-12-5.4-12-12v-86c0-6.6 5.4-12 12-12h62.7c6.6 0 12 5.4 12 12v86c0 6.6-5.4 12-12 12z"/></g></svg>