<svg xmlns="http://www.w3.org/2000/svg" viewBox="0 0 256 256" enable-background="new 0 0 256 256"><style type="text/css">.st0{fill:#969696;}</style><path class="st0" d="M184.2 164h-20.3v-8.5c-2.6 3.7-5.7 6.3-9.3 8-3.6 1.7-7.8 2.5-12.8 2.5-11.3 0-20.5-4.1-27.4-12.2-6.9-8.1-10.4-18.9-10.4-32.3 0-13.3 3.5-24 10.4-32.2 6.9-8.1 16.1-12.2 27.5-12.2 4.9 0 9.2.8 12.9 2.5 3.7 1.7 6.8 4.2 9.1 7.4v-4.2c0-9.4-2.6-16.6-7.7-21.8-5.1-5.1-12.5-7.7-22-7.7-14.4 0-26.1 6.3-35.2 19-9.1 12.6-13.6 29.1-13.6 49.3 0 21.2 5.2 38.1 15.7 50.6s24.5 18.8 42 18.8c5.5 0 10.9-.8 16.1-2.4 5.2-1.6 10.2-4.1 14.9-7.3l9.5 18.2c-5.6 3.8-11.7 6.6-18.3 8.5-6.6 1.9-13.7 2.8-21.2 2.8-24.2 0-43.4-8-57.8-24.1-14.4-16.1-21.5-37.8-21.5-65.2 0-26.7 6.5-48.1 19.4-64.2 12.9-16.1 30-24.1 51.3-24.1 15.1 0 27 4.5 35.7 13.6 8.7 9.1 13.1 21.5 13.1 37.1v80.1zm-19.3-42.5c0-7.8-1.8-13.9-5.3-18.3s-8.4-6.6-14.5-6.6-11 2.2-14.5 6.6c-3.5 4.4-5.2 10.5-5.2 18.3 0 7.9 1.7 14 5.2 18.4 3.5 4.4 8.3 6.6 14.5 6.6 6.1 0 11-2.2 14.5-6.6 3.6-4.4 5.3-10.5 5.3-18.4z"/></svg>