<svg xmlns="http://www.w3.org/2000/svg" width="512" height="512" fill-rule="evenodd" stroke-linejoin="round" stroke-miterlimit="2" clip-rule="evenodd" viewBox="0 0 512 512"><path fill="#492c66" fill-rule="nonzero" d="M424.436 493.5H87.564c-38.143 0-69.064-30.921-69.064-69.064V87.564C18.5 49.421 49.421 18.5 87.564 18.5h336.872c38.143 0 69.064 30.921 69.064 69.064v336.872c0 38.143-30.921 69.064-69.064 69.064"/><path fill="url(#a)" fill-rule="nonzero" d="M87.413 22.5A64.913 64.913 0 0 0 22.5 87.413v337.174A64.913 64.913 0 0 0 87.413 489.5h337.174c35.959 0 64.913-28.954 64.913-64.913V87.413c0-35.959-28.954-64.913-64.913-64.913z"/><path fill="#fff" fill-opacity=".3" d="M482.5 424.436c0 32.068-25.996 58.064-58.064 58.064H87.564c-32.068 0-58.064-25.996-58.064-58.064V87.565C29.5 55.497 55.496 29.5 87.564 29.5h336.872c32.068 0 58.064 25.997 58.064 58.065zm7-336.871c0-35.934-29.13-65.065-65.064-65.065H87.564C51.63 22.5 22.5 51.631 22.5 87.565v336.871c0 35.934 29.13 65.064 65.064 65.064h336.872c35.934 0 65.064-29.13 65.064-65.064z"/><path fill="url(#b)" d="M291.169 141.692a9.126 9.126 0 0 1 2.01-.309c3.249 0 6.188 1.856 8.972 3.558 2.785 1.856 5.414 3.403 7.89 2.939 1.237-.31 2.165-1.083 3.402-2.011a13.303 13.303 0 0 1 8.044-3.403h.619c10.21 0 20.728 6.806 27.998 18.253a95.596 95.596 0 0 1 9.126 19.8 74.868 74.868 0 0 0 12.685 24.13c2.784-2.784 8.971-10.209 14.076-16.087 16.86-19.336 18.872-21.656 21.037-21.656h.774l.773 1.083c2.32 1.547 1.392 4.331-3.403 17.015l-4.176 11.447a143.858 143.858 0 0 0-2.475 9.59c6.651-1.391 14.695-6.496 20.882-10.054 6.342-3.558 9.59-6.033 12.066-6.033h1.392l.928 2.011c1.547 2.94-4.176 11.602-4.331 11.602a83.84 83.84 0 0 1-10.519 11.601l-1.083 1.238-2.32 2.01c-2.784 2.476-6.497 5.879-6.651 8.818-.155 2.01 4.176 4.795 6.806 5.104 3.094.31 6.96-2.01 10.518-4.176 3.868-2.166 7.116-4.022 9.9-3.403a3.712 3.712 0 0 1 2.011 1.392c.774 1.547 1.392 4.331-2.63 19.336l-.154.773a66.67 66.67 0 0 1-6.96 19.49 61.256 61.256 0 0 1-7.426 9.9c-2.165 2.63-4.331 5.105-6.033 7.735l-1.856 2.939-2.63-3.249c-4.795-5.723-14.23-16.86-21.656-14.385-1.701.618-1.856 1.392-2.01 1.701-.774 3.094 3.557 9.745 7.734 14.54l2.63 2.785-3.558 1.083-4.796 1.856a61.874 61.874 0 0 1-7.58 2.475 56.306 56.306 0 0 1-22.583 2.63c-12.066-1.547-27.07-3.403-36.352-5.105a108.28 108.28 0 0 0-6.96-1.083c-2.785-.31-13.922-2.475-20.11-2.784-6.96-.31-11.292-1.083-13.457-2.475-2.785-1.702-3.558-6.188-4.331-10.364l-.929-3.713-1.546-.154c-3.404-.31-7.27-.619-10.52-4.022-2.783-2.94-3.248-6.188-3.557-9.127l-.464-2.784-2.784-.464c-6.652-.773-15.624-1.856-16.088-12.065l.155-4.177c.155-3.248.31-5.878-1.392-8.662a23.512 23.512 0 0 0-5.105-5.26c-2.939-2.475-5.878-4.95-5.878-8.817 0-2.165 1.547-3.867 3.249-5.723a20.11 20.11 0 0 0 5.259-8.663c.773-2.939-.619-6.032-1.856-8.971-.155-.155-3.094-4.95-1.702-8.508 1.856-4.486 8.198-5.878 11.756-6.497l1.238-.31a21.347 21.347 0 0 0 7.27-9.126c2.63-4.795 5.414-10.21 13.148-10.21a21.656 21.656 0 0 1 5.105.774c4.795 1.238 6.651-1.547 9.436-6.806 2.165-3.712 4.331-7.889 8.972-8.972zm61.874 88.79a6.806 6.806 0 0 0 6.806 6.652 6.602 6.602 0 0 0 6.652-6.652c0-3.712-2.94-6.806-6.652-6.806s-6.806 3.094-6.806 6.806z"/><path fill="url(#c)" d="M189.879 193.893a148.343 148.343 0 0 1 35.427-8.726 20.244 20.244 0 0 0 2.618 9.424c.698 1.396 1.571 3.49 1.396 4.189-.349 2.094-2.094 3.84-3.665 5.584-2.094 2.444-5.06 5.585-5.06 10.472 0 7.155 5.06 11.343 8.376 14.136a19.546 19.546 0 0 1 3.84 3.665c.349.698.349 1.92.174 4.537v4.887c.524 14.31 12.391 17.277 19.547 18.325a19.546 19.546 0 0 0 16.58 16.405c.872 4.886 2.443 10.645 7.33 13.612a35.253 35.253 0 0 0 16.753 3.49l5.76.699-2.27 2.967a38.395 38.395 0 0 0-4.362 22.338 211.868 211.868 0 0 0 9.424 24.259l.698 1.221-.524 1.571c-.698 1.222-1.57 2.967-30.89 2.967-17.278 0-38.395-.524-41.71-3.665-1.222-1.222-1.397-2.618-.873-15.532l.174-2.967-11.344-.698-.174 1.92c-1.047 13.961-1.92 17.626-4.189 18.673a29.669 29.669 0 0 1-11.692 2.094l-5.585-.174c-2.967-.175-5.76-.35-8.377-.175a24.957 24.957 0 0 1-21.99-.349c-7.33-3.316-7.33-11.693-7.504-18.499v-2.967l-10.471 4.189a251.66 251.66 0 0 0-25.306 10.994 195.638 195.638 0 0 1-35.253 13.439l-10.995 3.49-1.57-4.712c1.57-.698 6.631-6.806 9.249-9.599a118.15 118.15 0 0 0 26.004-37.696 427.576 427.576 0 0 0 11.867-27.75c4.363-10.82 8.9-22.163 14.31-32.809 14.137-27.749 30.89-44.154 54.277-53.229z"/><defs><linearGradient id="a" x2="1" gradientTransform="matrix(0 -467 467 0 256 489.5)" gradientUnits="userSpaceOnUse"><stop offset="0" stop-color="#583a75"/><stop offset="1" stop-color="#885ab8"/></linearGradient><linearGradient id="b" x2="1" gradientTransform="rotate(-90 315.043 -18.974) scale(154.686)" gradientUnits="userSpaceOnUse"><stop offset="0" stop-color="#ebebec"/><stop offset="1" stop-color="#fff"/></linearGradient><linearGradient id="c" x2="1" gradientTransform="rotate(-90 273.998 85.69) scale(174.521)" gradientUnits="userSpaceOnUse"><stop offset="0" stop-color="#ebebec"/><stop offset="1" stop-color="#fff"/></linearGradient></defs></svg>